<svg width="28" height="29" viewBox="0 0 28 29" fill="none" xmlns="http://www.w3.org/2000/svg">
<path d="M27.2806 17.4913L24.8283 16.0924C25.0758 14.7732 25.0758 13.4198 24.8283 12.1006L27.2806 10.7018C27.5627 10.5426 27.6893 10.2127 27.5972 9.90568C26.9582 7.88134 25.8702 6.05033 24.4484 4.52639C24.2296 4.29325 23.8727 4.23639 23.5964 4.39561L21.1441 5.79445C20.1137 4.91875 18.9278 4.24207 17.6441 3.79854V1.00654C17.6441 0.688102 17.4196 0.409471 17.103 0.341235C14.9903 -0.125047 12.8259 -0.102301 10.8168 0.341235C10.5002 0.409471 10.2757 0.688102 10.2757 1.00654V3.80422C8.99777 4.25345 7.81192 4.93012 6.77574 5.80013L4.32921 4.40129C4.04714 4.24207 3.69599 4.29325 3.47724 4.53208C2.05537 6.05033 0.967378 7.88134 0.3284 9.91137C0.230539 10.2184 0.362939 10.5482 0.645011 10.7075L3.0973 12.1063C2.84977 13.4255 2.84977 14.7789 3.0973 16.0981L0.645011 17.497C0.362939 17.6562 0.236295 17.986 0.3284 18.2931C0.967378 20.3174 2.05537 22.1484 3.47724 23.6723C3.69599 23.9055 4.05289 23.9624 4.32921 23.8031L6.7815 22.4043C7.81192 23.28 8.99778 23.9567 10.2815 24.4002V27.1979C10.2815 27.5163 10.506 27.795 10.8226 27.8632C12.9353 28.3295 15.0997 28.3067 17.1088 27.8632C17.4254 27.795 17.6499 27.5163 17.6499 27.1979V24.4002C18.9278 23.951 20.1137 23.2743 21.1499 22.4043L23.6022 23.8031C23.8842 23.9624 24.2354 23.9112 24.4541 23.6723C25.876 22.1541 26.964 20.3231 27.603 18.2931C27.6893 17.9803 27.5627 17.6505 27.2806 17.4913ZM13.9599 18.6456C11.4213 18.6456 9.35468 16.6042 9.35468 14.0965C9.35468 11.5888 11.4213 9.54744 13.9599 9.54744C16.4986 9.54744 18.5652 11.5888 18.5652 14.0965C18.5652 16.6042 16.4986 18.6456 13.9599 18.6456Z" fill="white"/>
</svg>
